<svg xmlns="http://www.w3.org/2000/svg" viewBox="0 0 512 512">
	<path fill="#222" d="M0 0h512v512H0z" />
	<path fill="#d73b25" d="M231.781 151.703v208.854h115.104v-50.52q0-19.271 7.292-27.344 7.552-8.334 19.531-8.334 11.719 0 19.01 8.334 7.553 8.073 7.553 27.343v103.907H147.406q-19.27 0-27.604-7.292-8.073-7.552-8.073-19.531 0-11.719 8.073-19.01 8.333-7.553 27.604-7.553h30.99V151.703h-30.99q-19.27 0-27.604-7.291-8.073-7.553-8.073-19.532t8.073-19.27q8.333-7.553 27.604-7.553l115.625.26q19.271 0 27.344 7.292 8.333 7.292 8.333 19.271 0 11.98-8.333 19.532-8.073 7.291-27.344 7.291z" />
</svg>
